<svg width="160" height="160" viewBox="0 0 160 160" fill="none" xmlns="http://www.w3.org/2000/svg">
<path d="M61.3 23.25C55.9051 20.9371 49.9391 20.3009 44.1778 21.424C38.4165 22.5472 33.1263 25.3778 28.9952 29.5477C24.8641 33.7176 22.0832 39.034 21.014 44.8056C19.9448 50.5772 20.6368 56.537 23 61.91C25.8789 52.9001 30.8502 44.6999 37.5072 37.9804C44.1641 31.2609 52.3174 26.2131 61.3 23.25Z" fill="#0098A1"/>
<path d="M80 139.75C112.999 139.75 139.75 112.999 139.75 80C139.75 47.001 112.999 20.25 80 20.25C47.001 20.25 20.25 47.001 20.25 80C20.25 112.999 47.001 139.75 80 139.75Z" fill="#F8F8F8" stroke="#001640" stroke-width="2" stroke-miterlimit="10"/>
<path d="M62.77 75.17H85.42C85.5871 75.17 85.7473 75.1036 85.8655 74.9855C85.9836 74.8673 86.05 74.7071 86.05 74.54C86.05 74.3729 85.9836 74.2127 85.8655 74.0945C85.7473 73.9764 85.5871 73.91 85.42 73.91H62.77C62.6029 73.91 62.4427 73.9764 62.3245 74.0945C62.2064 74.2127 62.14 74.3729 62.14 74.54C62.14 74.7071 62.2064 74.8673 62.3245 74.9855C62.4427 75.1036 62.6029 75.17 62.77 75.17ZM62.77 82.14H85.42C85.5871 82.14 85.7473 82.0736 85.8655 81.9555C85.9836 81.8373 86.05 81.6771 86.05 81.51C86.05 81.3429 85.9836 81.1827 85.8655 81.0645C85.7473 80.9464 85.5871 80.88 85.42 80.88H62.77C62.6029 80.88 62.4427 80.9464 62.3245 81.0645C62.2064 81.1827 62.14 81.3429 62.14 81.51C62.14 81.6771 62.2064 81.8373 62.3245 81.9555C62.4427 82.0736 62.6029 82.14 62.77 82.14ZM62.77 68.2H73.22C73.3871 68.2 73.5473 68.1336 73.6655 68.0155C73.7836 67.8973 73.85 67.7371 73.85 67.57C73.85 67.4029 73.7836 67.2427 73.6655 67.1245C73.5473 67.0064 73.3871 66.94 73.22 66.94H62.77C62.6029 66.94 62.4427 67.0064 62.3245 67.1245C62.2064 67.2427 62.14 67.4029 62.14 67.57C62.14 67.7371 62.2064 67.8973 62.3245 68.0155C62.4427 68.1336 62.6029 68.2 62.77 68.2Z" fill="#002148"/>
<path d="M101.39 101.21L98.09 100.42C97.9547 100.369 97.8309 100.291 97.7262 100.192C97.6214 100.092 97.5377 99.9726 97.48 99.84L97 98.77C96.9449 98.6438 96.9165 98.5076 96.9165 98.37C96.9165 98.2323 96.9449 98.0962 97 97.97L98.76 95.08C98.9449 94.7567 99.025 94.3839 98.9892 94.0132C98.9534 93.6424 98.8034 93.2919 98.56 93.01L97.06 91.52C96.7852 91.2893 96.4467 91.1477 96.0896 91.1137C95.7324 91.0798 95.3733 91.1552 95.06 91.33L94.72 91.54V67.48C94.7245 67.4535 94.7245 67.4265 94.72 67.4C94.6999 67.3134 94.6624 67.2318 94.61 67.16L80.66 51.47C80.5879 51.3841 80.4895 51.3243 80.38 51.3H55.8C55.1705 51.3026 54.5677 51.5545 54.1235 52.0006C53.6794 52.4466 53.43 53.0505 53.43 53.68V104.19C53.43 104.819 53.6794 105.423 54.1235 105.869C54.5677 106.315 55.1705 106.567 55.8 106.57H71.36L74.55 107.34C74.6877 107.387 74.8136 107.463 74.919 107.563C75.0243 107.663 75.1066 107.785 75.16 107.92L75.6 108.98C75.6565 109.108 75.6857 109.245 75.6857 109.385C75.6857 109.524 75.6565 109.662 75.6 109.79L73.83 112.68C73.648 112.994 73.5668 113.355 73.5972 113.717C73.6276 114.078 73.7682 114.421 74 114.7L75.5 116.2C75.7765 116.428 76.1154 116.567 76.4722 116.599C76.829 116.631 77.1872 116.555 77.5 116.38L80.39 114.61C80.659 114.499 80.961 114.499 81.23 114.61L82.29 115.05C82.5446 115.171 82.7419 115.386 82.84 115.65L83.63 118.94C83.7252 119.292 83.9237 119.608 84.1999 119.847C84.4761 120.086 84.8174 120.237 85.18 120.28H87.38C87.7576 120.249 88.1162 120.101 88.4064 119.858C88.6966 119.614 88.904 119.286 89 118.92L89.79 115.63C89.8365 115.492 89.9125 115.366 90.0127 115.261C90.1129 115.156 90.2348 115.073 90.37 115.02L91.44 114.58C91.5662 114.525 91.7023 114.497 91.84 114.497C91.9776 114.497 92.1138 114.525 92.24 114.58L95.13 116.34C95.4539 116.525 95.8275 116.604 96.1986 116.567C96.5698 116.529 96.9199 116.376 97.2 116.13L98.69 114.64C98.9178 114.363 99.0568 114.025 99.089 113.668C99.1211 113.311 99.0448 112.953 98.87 112.64L97.11 109.75C97.0528 109.617 97.0232 109.474 97.0232 109.33C97.0232 109.186 97.0528 109.043 97.11 108.91L97.55 107.84C97.607 107.713 97.6898 107.6 97.7931 107.507C97.8964 107.414 98.0179 107.343 98.15 107.3L101.45 106.5C101.802 106.406 102.117 106.207 102.354 105.931C102.592 105.654 102.74 105.312 102.78 104.95V102.76C102.735 102.39 102.577 102.044 102.329 101.767C102.08 101.489 101.752 101.295 101.39 101.21ZM80.82 53.56L92.72 66.94H81.93C81.37 66.94 80.82 66.06 80.82 65.39V53.56ZM54.69 104.15V53.64C54.69 53.3456 54.8069 53.0633 55.0151 52.8551C55.2233 52.6469 55.5056 52.53 55.8 52.53H79.56V65.39C79.56 66.69 80.56 68.2 81.93 68.2H93.5V92.31L92.21 93.1C92.0784 93.1609 91.935 93.1925 91.79 93.1925C91.6449 93.1925 91.5016 93.1609 91.37 93.1L90.3 92.66C90.1732 92.603 90.0597 92.5202 89.9668 92.4169C89.8738 92.3136 89.8034 92.192 89.76 92.06L89 88.79C88.9036 88.4381 88.7048 88.1229 88.4288 87.8843C88.1528 87.6457 87.8121 87.4945 87.45 87.45H85.25C84.9105 87.4895 84.5904 87.6287 84.33 87.85H62.77C62.602 87.8526 62.4418 87.9212 62.3239 88.0409C62.206 88.1607 62.14 88.322 62.14 88.49C62.14 88.6571 62.2064 88.8173 62.3245 88.9355C62.4427 89.0536 62.6029 89.12 62.77 89.12H83.59L82.88 92.12C82.8307 92.2574 82.7539 92.3834 82.6541 92.49C82.5544 92.5966 82.4339 92.6817 82.3 92.74L81.23 93.18C81.1038 93.2351 80.9677 93.2635 80.83 93.2635C80.6923 93.2635 80.5562 93.2351 80.43 93.18L77.54 91.41C77.2161 91.2249 76.8425 91.1457 76.4713 91.1833C76.1002 91.221 75.7501 91.3737 75.47 91.62L74 93C73.7965 93.2414 73.662 93.5334 73.611 93.845C73.5599 94.1566 73.5941 94.4762 73.71 94.77H62.77C62.6029 94.77 62.4427 94.8364 62.3245 94.9545C62.2064 95.0727 62.14 95.2329 62.14 95.4C62.14 95.568 62.206 95.7293 62.3239 95.849C62.4418 95.9688 62.602 96.0374 62.77 96.04H74.41L75.56 98C75.6209 98.1316 75.6525 98.2749 75.6525 98.42C75.6525 98.565 75.6209 98.7083 75.56 98.84L75.12 99.9C75.0652 100.028 74.9845 100.142 74.8829 100.237C74.7813 100.332 74.6611 100.404 74.53 100.45L71.23 101.24C70.8775 101.335 70.5615 101.534 70.3227 101.81C70.0839 102.086 69.9332 102.427 69.89 102.79V104.98C69.9093 105.086 69.9395 105.19 69.98 105.29H55.8C55.6513 105.291 55.5038 105.263 55.3665 105.206C55.2292 105.148 55.1049 105.064 55.0011 104.957C54.8974 104.851 54.8163 104.724 54.7628 104.586C54.7094 104.447 54.6846 104.299 54.69 104.15ZM101.46 104.84C101.442 104.938 101.399 105.03 101.333 105.105C101.268 105.181 101.184 105.238 101.09 105.27L97.8 106.07C97.4677 106.162 97.1608 106.329 96.9026 106.558C96.6444 106.787 96.4417 107.071 96.31 107.39L95.9 108.39C95.7611 108.708 95.6979 109.055 95.7152 109.402C95.7326 109.749 95.83 110.087 96 110.39L97.76 113.28C97.8048 113.358 97.8283 113.445 97.8283 113.535C97.8283 113.625 97.8048 113.712 97.76 113.79L96.32 115.23C96.2382 115.278 96.145 115.304 96.05 115.304C95.955 115.304 95.8617 115.278 95.78 115.23L92.89 113.47C92.5891 113.295 92.2509 113.193 91.9032 113.174C91.5555 113.155 91.2083 113.219 90.89 113.36L89.89 113.77C89.563 113.895 89.2697 114.095 89.0336 114.354C88.7975 114.613 88.6251 114.923 88.53 115.26L87.74 118.56C87.7043 118.654 87.6451 118.737 87.5681 118.802C87.4911 118.867 87.3988 118.911 87.3 118.93H85.3C85.2012 118.911 85.1089 118.867 85.0319 118.802C84.9549 118.737 84.8957 118.654 84.86 118.56L84.07 115.26C83.9739 114.929 83.8044 114.624 83.5741 114.368C83.3439 114.112 83.0587 113.911 82.74 113.78L81.74 113.37C81.4548 113.239 81.1437 113.174 80.83 113.18C80.4406 113.175 80.0571 113.275 79.72 113.47L76.83 115.23C76.7516 115.272 76.664 115.294 76.575 115.294C76.486 115.294 76.3984 115.272 76.32 115.23L74.87 113.79C74.8236 113.708 74.7992 113.615 74.7992 113.52C74.7992 113.425 74.8236 113.332 74.87 113.25L76.64 110.36C76.8087 110.057 76.9062 109.719 76.9253 109.373C76.9443 109.026 76.8844 108.68 76.75 108.36L76.34 107.36C76.2129 107.032 76.0112 106.739 75.7508 106.503C75.4904 106.267 75.1786 106.094 74.84 106L71.55 105.2C71.4553 105.167 71.3707 105.11 71.3042 105.034C71.2377 104.959 71.1915 104.868 71.17 104.77V102.77C71.1915 102.672 71.2377 102.581 71.3042 102.506C71.3707 102.43 71.4553 102.373 71.55 102.34L74.84 101.55C75.173 101.456 75.4802 101.287 75.7384 101.057C75.9965 100.826 76.1988 100.54 76.33 100.22L76.74 99.22C76.8745 98.9005 76.9353 98.5548 76.918 98.2086C76.9007 97.8624 76.8057 97.5245 76.64 97.22L74.87 94.33C74.8279 94.2498 74.806 94.1606 74.806 94.07C74.806 93.9794 74.8279 93.8902 74.87 93.81L76.31 92.37C76.3924 92.3236 76.4854 92.2992 76.58 92.2992C76.6746 92.2992 76.7676 92.3236 76.85 92.37L79.74 94.14C80.0427 94.3101 80.3805 94.4084 80.7272 94.4275C81.0739 94.4466 81.4204 94.3858 81.74 94.25L82.74 93.84C83.0657 93.7096 83.3575 93.5068 83.5931 93.2469C83.8287 92.987 84.0021 92.6769 84.1 92.34L84.89 89.05C84.9243 88.9541 84.9828 88.8686 85.0599 88.802C85.137 88.7354 85.2301 88.6899 85.33 88.67H87.33C87.4295 88.6908 87.5221 88.7367 87.5991 88.8031C87.6761 88.8696 87.7349 88.9546 87.77 89.05L88.56 92.34C88.6527 92.6725 88.8209 92.979 89.0516 93.2358C89.2823 93.4925 89.5693 93.6924 89.89 93.82L90.89 94.23C91.2082 94.3681 91.5538 94.4318 91.9004 94.4162C92.247 94.4007 92.5854 94.3062 92.89 94.14L95.78 92.37C95.8581 92.3271 95.9459 92.3046 96.035 92.3046C96.1241 92.3046 96.2118 92.3271 96.29 92.37L97.74 93.81C97.7894 93.8914 97.8156 93.9848 97.8156 94.08C97.8156 94.1752 97.7894 94.2686 97.74 94.35L96 97.3C95.8262 97.6014 95.7257 97.9395 95.7066 98.2869C95.6875 98.6343 95.7503 98.9813 95.89 99.3L96.3 100.3C96.429 100.626 96.6314 100.919 96.8915 101.155C97.1516 101.391 97.4624 101.563 97.8 101.66L101.09 102.45C101.184 102.482 101.268 102.539 101.333 102.615C101.399 102.69 101.442 102.782 101.46 102.88C101.48 103.213 101.48 103.547 101.46 103.88C101.48 104.2 101.48 104.52 101.46 104.84Z" fill="#002148"/>
<mask id="path-5-inside-1_3:142" fill="white">
<path d="M86.32 96.9C84.9355 96.9 83.5822 97.3105 82.431 98.0797C81.2799 98.8489 80.3827 99.9421 79.8529 101.221C79.323 102.5 79.1844 103.908 79.4545 105.266C79.7246 106.623 80.3913 107.871 81.3703 108.85C82.3492 109.829 83.5965 110.495 84.9544 110.765C86.3122 111.036 87.7197 110.897 88.9988 110.367C90.2779 109.837 91.3711 108.94 92.1403 107.789C92.9095 106.638 93.32 105.284 93.32 103.9C93.32 102.043 92.5825 100.263 91.2698 98.9502C89.957 97.6375 88.1765 96.9 86.32 96.9ZM86.32 109.55C85.1914 109.554 84.087 109.223 83.1468 108.598C82.2066 107.974 81.4729 107.085 81.0387 106.043C80.6045 105.001 80.4894 103.854 80.7078 102.747C80.9263 101.639 81.4686 100.622 82.266 99.8231C83.0633 99.0243 84.0799 98.4802 85.1868 98.2598C86.2937 98.0394 87.4411 98.1525 88.4836 98.5849C89.5261 99.0172 90.4168 99.7493 91.0428 100.688C91.6689 101.628 92.002 102.731 92 103.86C92 105.367 91.4019 106.813 90.337 107.88C89.2721 108.947 87.8274 109.547 86.32 109.55ZM121 93.06L118.92 92C118.809 91.9132 118.734 91.7886 118.71 91.65L118.59 90.85C118.581 90.7206 118.621 90.5925 118.7 90.49L120.37 88.85C120.58 88.6338 120.716 88.357 120.759 88.0589C120.802 87.7608 120.75 87.4567 120.61 87.19L119.85 85.93C119.68 85.6895 119.44 85.508 119.162 85.4112C118.884 85.3144 118.582 85.3069 118.3 85.39L116.06 86.08C115.992 86.0919 115.921 86.0891 115.854 86.0719C115.787 86.0547 115.724 86.0233 115.67 85.98L115.02 85.5C114.921 85.4207 114.856 85.306 114.84 85.18V82.83C114.835 82.5383 114.743 82.2547 114.575 82.0159C114.408 81.777 114.173 81.5939 113.9 81.49C113.9 81.49 113.6 81.39 113.15 81.27C112.7 81.15 112.4 81.11 112.39 81.11C112.101 81.0747 111.807 81.1262 111.547 81.258C111.288 81.3897 111.073 81.5958 110.93 81.85L109.84 83.93C109.754 84.0402 109.628 84.112 109.49 84.13L108.69 84.25C108.565 84.259 108.441 84.2236 108.34 84.15L106.69 82.47C106.472 82.2632 106.195 82.1299 105.897 82.0886C105.599 82.0474 105.296 82.1003 105.03 82.24L103.77 82.99C103.53 83.1623 103.349 83.4048 103.252 83.6842C103.155 83.9636 103.148 84.266 103.23 84.55L103.93 86.79C103.943 86.9276 103.907 87.0654 103.83 87.18L103.35 87.83C103.259 87.9282 103.134 87.9888 103 88H100.66C100.362 88.0122 100.074 88.1142 99.8353 88.2926C99.5961 88.4711 99.4165 88.7177 99.32 89C99.32 89 99.22 89.29 99.11 89.74C99 90.19 98.94 90.5 98.94 90.5C98.9026 90.7909 98.9531 91.0863 99.085 91.3483C99.2169 91.6102 99.4241 91.8267 99.68 91.97L101.79 93C101.897 93.0854 101.972 93.2057 102 93.34L102.12 94.15C102.12 94.2752 102.082 94.3974 102.01 94.5L100.34 96.14C100.13 96.3562 99.9942 96.633 99.9511 96.9311C99.908 97.2292 99.9601 97.5333 100.1 97.8L100.85 99.06C101.022 99.3009 101.264 99.4829 101.543 99.5813C101.822 99.6797 102.125 99.6898 102.41 99.61L104.65 98.91C104.718 98.8987 104.788 98.9018 104.856 98.919C104.923 98.9362 104.985 98.9672 105.04 99.01L105.69 99.49C105.788 99.5749 105.851 99.692 105.87 99.82V102.16C105.879 102.459 105.98 102.748 106.159 102.987C106.338 103.227 106.586 103.406 106.87 103.5C107.116 103.588 107.366 103.661 107.62 103.72C108.07 103.83 108.37 103.88 108.38 103.88H108.57C108.83 103.878 109.085 103.806 109.308 103.673C109.532 103.539 109.715 103.348 109.84 103.12L110.93 101.05C111.015 100.937 111.14 100.862 111.28 100.84L112.08 100.72C112.207 100.71 112.332 100.749 112.43 100.83L114.07 102.5C114.286 102.71 114.563 102.846 114.861 102.889C115.159 102.932 115.463 102.88 115.73 102.74L117 101.98C117.24 101.808 117.421 101.565 117.518 101.286C117.615 101.006 117.622 100.704 117.54 100.42L116.84 98.19C116.827 98.0523 116.862 97.9142 116.94 97.8L117.42 97.14C117.42 97.07 117.65 96.93 117.75 96.97L120 97C120.291 96.9938 120.574 96.9011 120.813 96.7337C121.052 96.5664 121.235 96.3319 121.34 96.06C121.34 96.06 121.44 95.76 121.55 95.31C121.618 95.0601 121.672 94.8063 121.71 94.55C121.756 94.259 121.712 93.961 121.586 93.695C121.459 93.4291 121.255 93.2077 121 93.06ZM120.35 95C120.298 95.2165 120.234 95.4301 120.16 95.64C120.16 95.64 120.06 95.73 120.02 95.74H117.68C117.411 95.7465 117.148 95.8137 116.909 95.9367C116.67 96.0596 116.462 96.2351 116.3 96.45L115.87 97.04C115.699 97.257 115.581 97.5116 115.528 97.7827C115.474 98.0539 115.485 98.334 115.56 98.6L116.25 100.83V100.95L115.05 101.66C115.028 101.67 115.004 101.675 114.98 101.675C114.956 101.675 114.932 101.67 114.91 101.66L113.27 99.99C113.076 99.8035 112.841 99.6648 112.584 99.585C112.327 99.5051 112.055 99.4863 111.79 99.53L111.06 99.63C110.787 99.6646 110.526 99.7621 110.297 99.9148C110.068 100.067 109.877 100.271 109.74 100.51L108.65 102.59C108.61 102.631 108.557 102.656 108.5 102.66C108.281 102.625 108.064 102.579 107.85 102.52C107.48 102.43 107.23 102.34 107.22 102.34C107.17 102.308 107.134 102.258 107.12 102.2V99.86C107.116 99.5897 107.049 99.3241 106.924 99.0844C106.799 98.8448 106.619 98.6378 106.4 98.48L105.82 98.05C105.505 97.7986 105.113 97.6643 104.71 97.67C104.558 97.6695 104.407 97.6897 104.26 97.73L102.03 98.43H101.93L101.21 97.24C101.195 97.1912 101.195 97.1388 101.21 97.09L102.89 95.45C103.075 95.2571 103.213 95.0241 103.293 94.769C103.372 94.514 103.392 94.2439 103.35 93.98L103.24 93.25C103.209 92.9757 103.113 92.7128 102.96 92.4832C102.807 92.2535 102.601 92.0639 102.36 91.93L100.29 90.84C100.267 90.8215 100.249 90.7988 100.235 90.773C100.221 90.7473 100.213 90.7191 100.21 90.69C100.21 90.69 100.21 90.42 100.35 90.04C100.401 89.8265 100.465 89.6161 100.54 89.41C100.553 89.3847 100.571 89.3625 100.594 89.3452C100.616 89.3279 100.642 89.3159 100.67 89.31H103.02C103.287 89.3038 103.549 89.2355 103.785 89.1106C104.021 88.9856 104.225 88.8074 104.38 88.59L104.82 88C104.991 87.7848 105.108 87.532 105.162 87.2625C105.216 86.9929 105.205 86.7144 105.13 86.45L104.44 84.22V84.1L105.64 83.38C105.685 83.3647 105.735 83.3647 105.78 83.38L107.45 85C107.643 85.1876 107.878 85.3277 108.135 85.4092C108.391 85.4908 108.664 85.5116 108.93 85.47L109.66 85.36C109.933 85.3254 110.194 85.2279 110.423 85.0752C110.653 84.9225 110.843 84.7188 110.98 84.48L112.07 82.41C112.086 82.3872 112.107 82.3682 112.131 82.3544C112.155 82.3406 112.182 82.3322 112.21 82.33L112.87 82.47C113.24 82.56 113.49 82.65 113.5 82.65C113.55 82.682 113.586 82.7321 113.6 82.79V85.14C113.604 85.4077 113.671 85.6708 113.794 85.9085C113.917 86.1463 114.094 86.3522 114.31 86.51L114.9 86.95C115.119 87.117 115.374 87.2318 115.644 87.2855C115.914 87.3392 116.194 87.3305 116.46 87.26L118.69 86.56H118.79L119.51 87.76C119.525 87.8054 119.525 87.8546 119.51 87.9L117.83 89.54C117.645 89.7348 117.507 89.9696 117.427 90.2263C117.347 90.483 117.328 90.7545 117.37 91.02L117.48 91.75C117.512 92.0226 117.607 92.284 117.758 92.5132C117.91 92.7424 118.112 92.9331 118.35 93.07L120.43 94.15C120.47 94.1916 120.498 94.2435 120.51 94.3L120.35 95Z"/>
</mask>
<path d="M86.32 96.9C84.9355 96.9 83.5822 97.3105 82.431 98.0797C81.2799 98.8489 80.3827 99.9421 79.8529 101.221C79.323 102.5 79.1844 103.908 79.4545 105.266C79.7246 106.623 80.3913 107.871 81.3703 108.85C82.3492 109.829 83.5965 110.495 84.9544 110.765C86.3122 111.036 87.7197 110.897 88.9988 110.367C90.2779 109.837 91.3711 108.94 92.1403 107.789C92.9095 106.638 93.32 105.284 93.32 103.9C93.32 102.043 92.5825 100.263 91.2698 98.9502C89.957 97.6375 88.1765 96.9 86.32 96.9ZM86.32 109.55C85.1914 109.554 84.087 109.223 83.1468 108.598C82.2066 107.974 81.4729 107.085 81.0387 106.043C80.6045 105.001 80.4894 103.854 80.7078 102.747C80.9263 101.639 81.4686 100.622 82.266 99.8231C83.0633 99.0243 84.0799 98.4802 85.1868 98.2598C86.2937 98.0394 87.4411 98.1525 88.4836 98.5849C89.5261 99.0172 90.4168 99.7493 91.0428 100.688C91.6689 101.628 92.002 102.731 92 103.86C92 105.367 91.4019 106.813 90.337 107.88C89.2721 108.947 87.8274 109.547 86.32 109.55ZM121 93.06L118.92 92C118.809 91.9132 118.734 91.7886 118.71 91.65L118.59 90.85C118.581 90.7206 118.621 90.5925 118.7 90.49L120.37 88.85C120.58 88.6338 120.716 88.357 120.759 88.0589C120.802 87.7608 120.75 87.4567 120.61 87.19L119.85 85.93C119.68 85.6895 119.44 85.508 119.162 85.4112C118.884 85.3144 118.582 85.3069 118.3 85.39L116.06 86.08C115.992 86.0919 115.921 86.0891 115.854 86.0719C115.787 86.0547 115.724 86.0233 115.67 85.98L115.02 85.5C114.921 85.4207 114.856 85.306 114.84 85.18V82.83C114.835 82.5383 114.743 82.2547 114.575 82.0159C114.408 81.777 114.173 81.5939 113.9 81.49C113.9 81.49 113.6 81.39 113.15 81.27C112.7 81.15 112.4 81.11 112.39 81.11C112.101 81.0747 111.807 81.1262 111.547 81.258C111.288 81.3897 111.073 81.5958 110.93 81.85L109.84 83.93C109.754 84.0402 109.628 84.112 109.49 84.13L108.69 84.25C108.565 84.259 108.441 84.2236 108.34 84.15L106.69 82.47C106.472 82.2632 106.195 82.1299 105.897 82.0886C105.599 82.0474 105.296 82.1003 105.03 82.24L103.77 82.99C103.53 83.1623 103.349 83.4048 103.252 83.6842C103.155 83.9636 103.148 84.266 103.23 84.55L103.93 86.79C103.943 86.9276 103.907 87.0654 103.83 87.18L103.35 87.83C103.259 87.9282 103.134 87.9888 103 88H100.66C100.362 88.0122 100.074 88.1142 99.8353 88.2926C99.5961 88.4711 99.4165 88.7177 99.32 89C99.32 89 99.22 89.29 99.11 89.74C99 90.19 98.94 90.5 98.94 90.5C98.9026 90.7909 98.9531 91.0863 99.085 91.3483C99.2169 91.6102 99.4241 91.8267 99.68 91.97L101.79 93C101.897 93.0854 101.972 93.2057 102 93.34L102.12 94.15C102.12 94.2752 102.082 94.3974 102.01 94.5L100.34 96.14C100.13 96.3562 99.9942 96.633 99.9511 96.9311C99.908 97.2292 99.9601 97.5333 100.1 97.8L100.85 99.06C101.022 99.3009 101.264 99.4829 101.543 99.5813C101.822 99.6797 102.125 99.6898 102.41 99.61L104.65 98.91C104.718 98.8987 104.788 98.9018 104.856 98.919C104.923 98.9362 104.985 98.9672 105.04 99.01L105.69 99.49C105.788 99.5749 105.851 99.692 105.87 99.82V102.16C105.879 102.459 105.98 102.748 106.159 102.987C106.338 103.227 106.586 103.406 106.87 103.5C107.116 103.588 107.366 103.661 107.62 103.72C108.07 103.83 108.37 103.88 108.38 103.88H108.57C108.83 103.878 109.085 103.806 109.308 103.673C109.532 103.539 109.715 103.348 109.84 103.12L110.93 101.05C111.015 100.937 111.14 100.862 111.28 100.84L112.08 100.72C112.207 100.71 112.332 100.749 112.43 100.83L114.07 102.5C114.286 102.71 114.563 102.846 114.861 102.889C115.159 102.932 115.463 102.88 115.73 102.74L117 101.98C117.24 101.808 117.421 101.565 117.518 101.286C117.615 101.006 117.622 100.704 117.54 100.42L116.84 98.19C116.827 98.0523 116.862 97.9142 116.94 97.8L117.42 97.14C117.42 97.07 117.65 96.93 117.75 96.97L120 97C120.291 96.9938 120.574 96.9011 120.813 96.7337C121.052 96.5664 121.235 96.3319 121.34 96.06C121.34 96.06 121.44 95.76 121.55 95.31C121.618 95.0601 121.672 94.8063 121.71 94.55C121.756 94.259 121.712 93.961 121.586 93.695C121.459 93.4291 121.255 93.2077 121 93.06ZM120.35 95C120.298 95.2165 120.234 95.4301 120.16 95.64C120.16 95.64 120.06 95.73 120.02 95.74H117.68C117.411 95.7465 117.148 95.8137 116.909 95.9367C116.67 96.0596 116.462 96.2351 116.3 96.45L115.87 97.04C115.699 97.257 115.581 97.5116 115.528 97.7827C115.474 98.0539 115.485 98.334 115.56 98.6L116.25 100.83V100.95L115.05 101.66C115.028 101.67 115.004 101.675 114.98 101.675C114.956 101.675 114.932 101.67 114.91 101.66L113.27 99.99C113.076 99.8035 112.841 99.6648 112.584 99.585C112.327 99.5051 112.055 99.4863 111.79 99.53L111.06 99.63C110.787 99.6646 110.526 99.7621 110.297 99.9148C110.068 100.067 109.877 100.271 109.74 100.51L108.65 102.59C108.61 102.631 108.557 102.656 108.5 102.66C108.281 102.625 108.064 102.579 107.85 102.52C107.48 102.43 107.23 102.34 107.22 102.34C107.17 102.308 107.134 102.258 107.12 102.2V99.86C107.116 99.5897 107.049 99.3241 106.924 99.0844C106.799 98.8448 106.619 98.6378 106.4 98.48L105.82 98.05C105.505 97.7986 105.113 97.6643 104.71 97.67C104.558 97.6695 104.407 97.6897 104.26 97.73L102.03 98.43H101.93L101.21 97.24C101.195 97.1912 101.195 97.1388 101.21 97.09L102.89 95.45C103.075 95.2571 103.213 95.0241 103.293 94.769C103.372 94.514 103.392 94.2439 103.35 93.98L103.24 93.25C103.209 92.9757 103.113 92.7128 102.96 92.4832C102.807 92.2535 102.601 92.0639 102.36 91.93L100.29 90.84C100.267 90.8215 100.249 90.7988 100.235 90.773C100.221 90.7473 100.213 90.7191 100.21 90.69C100.21 90.69 100.21 90.42 100.35 90.04C100.401 89.8265 100.465 89.6161 100.54 89.41C100.553 89.3847 100.571 89.3625 100.594 89.3452C100.616 89.3279 100.642 89.3159 100.67 89.31H103.02C103.287 89.3038 103.549 89.2355 103.785 89.1106C104.021 88.9856 104.225 88.8074 104.38 88.59L104.82 88C104.991 87.7848 105.108 87.532 105.162 87.2625C105.216 86.9929 105.205 86.7144 105.13 86.45L104.44 84.22V84.1L105.64 83.38C105.685 83.3647 105.735 83.3647 105.78 83.38L107.45 85C107.643 85.1876 107.878 85.3277 108.135 85.4092C108.391 85.4908 108.664 85.5116 108.93 85.47L109.66 85.36C109.933 85.3254 110.194 85.2279 110.423 85.0752C110.653 84.9225 110.843 84.7188 110.98 84.48L112.07 82.41C112.086 82.3872 112.107 82.3682 112.131 82.3544C112.155 82.3406 112.182 82.3322 112.21 82.33L112.87 82.47C113.24 82.56 113.49 82.65 113.5 82.65C113.55 82.682 113.586 82.7321 113.6 82.79V85.14C113.604 85.4077 113.671 85.6708 113.794 85.9085C113.917 86.1463 114.094 86.3522 114.31 86.51L114.9 86.95C115.119 87.117 115.374 87.2318 115.644 87.2855C115.914 87.3392 116.194 87.3305 116.46 87.26L118.69 86.56H118.79L119.51 87.76C119.525 87.8054 119.525 87.8546 119.51 87.9L117.83 89.54C117.645 89.7348 117.507 89.9696 117.427 90.2263C117.347 90.483 117.328 90.7545 117.37 91.02L117.48 91.75C117.512 92.0226 117.607 92.284 117.758 92.5132C117.91 92.7424 118.112 92.9331 118.35 93.07L120.43 94.15C120.47 94.1916 120.498 94.2435 120.51 94.3L120.35 95Z" fill="#002148" stroke="black" stroke-width="2" mask="url(#path-5-inside-1_3:142)"/>
<path d="M110.35 88.68C109.598 88.68 108.863 88.9031 108.238 89.3211C107.613 89.7391 107.126 90.3332 106.838 91.0281C106.551 91.7231 106.476 92.4876 106.624 93.225C106.771 93.9624 107.134 94.6395 107.667 95.1705C108.199 95.7016 108.877 96.0627 109.615 96.2082C110.353 96.3537 111.811 95.9879 111.811 95.9879C112.505 95.6987 113.098 95.2101 113.514 94.5839C113.931 93.9577 114.152 93.222 114.15 92.47C114.15 91.9715 114.052 91.4778 113.861 91.0173C113.669 90.5568 113.389 90.1386 113.036 89.7865C112.683 89.4345 112.264 89.1555 111.803 88.9656C111.342 88.7758 110.849 88.6787 110.35 88.68ZM110.35 95C109.85 95 109.36 94.8516 108.944 94.5736C108.528 94.2956 108.204 93.9005 108.013 93.4382C107.821 92.9759 107.771 92.4672 107.869 91.9764C107.966 91.4857 108.207 91.0349 108.561 90.681C108.915 90.3272 109.366 90.0862 109.856 89.9886C110.347 89.891 110.856 89.9411 111.318 90.1326C111.78 90.3241 112.176 90.6484 112.454 91.0644C112.732 91.4805 112.88 91.9696 112.88 92.47C112.88 93.141 112.613 93.7845 112.139 94.259C111.664 94.7335 111.021 95 110.35 95Z" fill="#002148"/>
</svg>
