<svg width="32" height="32" viewBox="0 0 32 32" fill="none" xmlns="http://www.w3.org/2000/svg">
<rect width="32" height="32" rx="4" fill="#C4C4C4"/>
<g clip-path="url(#clip0_3:264)">
<path d="M17.6725 19.1071V20.9911C17.6725 21.3899 17.5564 21.5893 17.3243 21.5893C17.1874 21.5893 17.0535 21.5238 16.9225 21.3929V18.7054C17.0535 18.5744 17.1874 18.5089 17.3243 18.5089C17.5564 18.5089 17.6725 18.7083 17.6725 19.1071ZM20.6904 19.1161V19.5268H19.8868V19.1161C19.8868 18.7113 20.0207 18.5089 20.2886 18.5089C20.5564 18.5089 20.6904 18.7113 20.6904 19.1161ZM12.0654 17.1696H13.0207V16.3304H10.235V17.1696H11.1725V22.25H12.0654V17.1696ZM14.6368 22.25H15.4314V17.8393H14.6368V21.2143C14.4582 21.4643 14.2886 21.5893 14.1279 21.5893C14.0207 21.5893 13.9582 21.5268 13.9404 21.4018C13.9344 21.3839 13.9314 21.2798 13.9314 21.0893V17.8393H13.1368V21.3304C13.1368 21.622 13.1606 21.8393 13.2082 21.9821C13.2796 22.2024 13.4523 22.3125 13.7261 22.3125C14.0118 22.3125 14.3154 22.131 14.6368 21.7679V22.25ZM18.4671 20.9286V19.1696C18.4671 18.7351 18.4404 18.4405 18.3868 18.2857C18.2856 17.9524 18.0743 17.7857 17.7529 17.7857C17.4552 17.7857 17.1785 17.9464 16.9225 18.2679V16.3304H16.1279V22.25H16.9225V21.8214C17.1904 22.1488 17.4671 22.3125 17.7529 22.3125C18.0743 22.3125 18.2856 22.1488 18.3868 21.8214C18.4404 21.6607 18.4671 21.3631 18.4671 20.9286ZM21.485 20.8393V20.7232H20.6725C20.6725 21.0268 20.6665 21.2083 20.6546 21.2679C20.613 21.4821 20.4939 21.5893 20.2975 21.5893C20.0237 21.5893 19.8868 21.3839 19.8868 20.9732V20.1964H21.485V19.2768C21.485 18.8065 21.4046 18.4613 21.2439 18.2411C21.0118 17.9375 20.6963 17.7857 20.2975 17.7857C19.8927 17.7857 19.5743 17.9375 19.3421 18.2411C19.1755 18.4613 19.0921 18.8065 19.0921 19.2768V20.8214C19.0921 21.2917 19.1785 21.6369 19.3511 21.8571C19.5832 22.1607 19.9046 22.3125 20.3154 22.3125C20.7439 22.3125 21.0654 22.1548 21.2796 21.8393C21.3868 21.6786 21.4493 21.5179 21.4671 21.3571C21.479 21.3036 21.485 21.131 21.485 20.8393ZM16.0564 12.6875V10.8125C16.0564 10.4018 15.9285 10.1964 15.6725 10.1964C15.4165 10.1964 15.2886 10.4018 15.2886 10.8125V12.6875C15.2886 13.1042 15.4165 13.3125 15.6725 13.3125C15.9285 13.3125 16.0564 13.1042 16.0564 12.6875ZM22.4761 19.3929C22.4761 20.7857 22.3987 21.8274 22.2439 22.5179C22.1606 22.869 21.988 23.1637 21.7261 23.4018C21.4642 23.6399 21.1606 23.7768 20.8154 23.8125C19.7201 23.9375 18.0683 24 15.86 24C13.6517 24 11.9999 23.9375 10.9046 23.8125C10.5594 23.7768 10.2543 23.6399 9.98946 23.4018C9.72458 23.1637 9.55345 22.869 9.47607 22.5179C9.32131 21.8512 9.24393 20.8095 9.24393 19.3929C9.24393 18 9.32131 16.9583 9.47607 16.2679C9.5594 15.9167 9.73202 15.622 9.99393 15.3839C10.2558 15.1458 10.5624 15.006 10.9136 14.9643C12.0029 14.8452 13.6517 14.7857 15.86 14.7857C18.0683 14.7857 19.7201 14.8452 20.8154 14.9643C21.1606 15.006 21.4657 15.1458 21.7305 15.3839C21.9954 15.622 22.1665 15.9167 22.2439 16.2679C22.3987 16.9345 22.4761 17.9762 22.4761 19.3929ZM13.5654 8H14.4761L13.3957 11.5625V13.9821H12.5029V11.5625C12.4195 11.122 12.238 10.4911 11.9582 9.66964C11.738 9.05655 11.5445 8.5 11.3779 8H12.3243L12.9582 10.3482L13.5654 8ZM16.8689 10.9732V12.5357C16.8689 13.0179 16.7856 13.369 16.6189 13.5893C16.3927 13.8929 16.0773 14.0446 15.6725 14.0446C15.2737 14.0446 14.9612 13.8929 14.735 13.5893C14.5683 13.3631 14.485 13.0119 14.485 12.5357V10.9732C14.485 10.497 14.5683 10.1488 14.735 9.92857C14.9612 9.625 15.2737 9.47321 15.6725 9.47321C16.0773 9.47321 16.3927 9.625 16.6189 9.92857C16.7856 10.1488 16.8689 10.497 16.8689 10.9732ZM19.86 9.52679V13.9821H19.0475V13.4911C18.732 13.8601 18.4255 14.0446 18.1279 14.0446C17.854 14.0446 17.6785 13.9345 17.6011 13.7143C17.5535 13.5714 17.5296 13.3482 17.5296 13.0446V9.52679H18.3421V12.8036C18.3421 13 18.3451 13.1042 18.3511 13.1161C18.3689 13.247 18.4314 13.3125 18.5386 13.3125C18.6993 13.3125 18.8689 13.1845 19.0475 12.9286V9.52679H19.86Z" fill="#F8F8F8"/>
</g>
<defs>
<clipPath id="clip0_3:264">
<rect width="13.72" height="16" fill="white" transform="translate(9 8)"/>
</clipPath>
</defs>
</svg>
